<svg width="634" height="119" viewBox="0 0 634 119" fill="none" xmlns="http://www.w3.org/2000/svg">
<g filter="url(#filter0_d)">
<path d="M8.85081 103C7.79481 103 6.88281 102.616 6.11481 101.848C5.34681 101.08 4.96281 100.168 4.96281 99.112V6.08799C4.96281 5.032 5.34681 4.12 6.11481 3.352C6.88281 2.58399 7.79481 2.19999 8.85081 2.19999H27.7148C28.7708 2.19999 29.6828 2.58399 30.4508 3.352C31.2188 4.12 31.6028 5.032 31.6028 6.08799V99.112C31.6028 100.168 31.2188 101.08 30.4508 101.848C29.6828 102.616 28.7708 103 27.7148 103H8.85081ZM101.632 28.12C102.688 28.12 103.6 28.504 104.368 29.272C105.136 30.04 105.52 30.952 105.52 32.008V46.552C105.52 47.608 105.136 48.52 104.368 49.288C103.6 50.056 102.688 50.44 101.632 50.44H88.5278C84.2078 50.44 80.8958 51.592 78.5918 53.896C76.3838 56.104 75.2798 59.368 75.2798 63.688V99.112C75.2798 100.168 74.8958 101.08 74.1278 101.848C73.3598 102.616 72.4478 103 71.3918 103H53.2478C52.1918 103 51.2798 102.616 50.5118 101.848C49.7438 101.08 49.3598 100.168 49.3598 99.112V32.008C49.3598 30.952 49.7438 30.04 50.5118 29.272C51.2798 28.504 52.1918 28.12 53.2478 28.12H69.9518C71.0078 28.12 71.9198 28.504 72.6878 29.272C73.4558 30.04 73.8398 30.952 73.8398 32.008V35.32C78.8318 30.52 85.2158 28.12 92.9918 28.12H101.632ZM190.622 71.176C190.334 77.32 188.558 82.936 185.294 88.024C182.03 93.016 177.47 97 171.614 99.976C165.758 102.952 159.038 104.44 151.454 104.44C143.87 104.44 137.15 102.952 131.294 99.976C125.438 97 120.878 93.016 117.614 88.024C114.35 82.936 112.574 77.32 112.286 71.176L112.142 65.56L112.286 60.088C112.478 53.944 114.206 48.328 117.47 43.24C120.734 38.152 125.294 34.12 131.15 31.144C137.102 28.168 143.87 26.68 151.454 26.68C159.038 26.68 165.758 28.168 171.614 31.144C177.566 34.12 182.174 38.152 185.438 43.24C188.702 48.328 190.43 53.944 190.622 60.088C190.718 61.048 190.766 62.872 190.766 65.56C190.766 68.344 190.718 70.216 190.622 71.176ZM151.454 82.12C155.294 82.12 158.366 81.112 160.67 79.096C163.07 76.984 164.414 74.104 164.702 70.456C164.894 68.536 164.99 66.904 164.99 65.56C164.99 64.216 164.894 62.584 164.702 60.664C164.414 57.016 163.07 54.184 160.67 52.168C158.366 50.056 155.294 49 151.454 49C147.614 49 144.494 50.056 142.094 52.168C139.79 54.184 138.494 57.016 138.206 60.664C138.11 61.624 138.062 63.256 138.062 65.56C138.062 67.864 138.11 69.496 138.206 70.456C138.494 74.104 139.79 76.984 142.094 79.096C144.494 81.112 147.614 82.12 151.454 82.12ZM280.94 99.112C280.94 100.168 280.556 101.08 279.788 101.848C279.02 102.616 278.108 103 277.052 103H258.908C257.852 103 256.94 102.616 256.172 101.848C255.404 101.08 255.02 100.168 255.02 99.112V62.68C255.02 58.456 253.964 55.144 251.852 52.744C249.836 50.248 246.716 49 242.492 49C238.364 49 235.244 50.2 233.132 52.6C231.116 55 230.108 58.36 230.108 62.68V99.112C230.108 100.168 229.724 101.08 228.956 101.848C228.188 102.616 227.276 103 226.22 103H208.076C207.02 103 206.108 102.616 205.34 101.848C204.572 101.08 204.188 100.168 204.188 99.112V32.008C204.188 30.952 204.572 30.04 205.34 29.272C206.108 28.504 207.02 28.12 208.076 28.12H225.5C226.556 28.12 227.468 28.504 228.236 29.272C229.004 30.04 229.388 30.952 229.388 32.008V35.32C233.9 29.56 240.668 26.68 249.692 26.68C259.388 26.68 267.02 29.416 272.588 34.888C278.156 40.36 280.94 48.568 280.94 59.512V99.112Z" fill="#DCDDE1"/>
<path d="M321.772 64.696C322.156 69.688 323.74 73.72 326.524 76.792C329.404 79.864 333.868 81.4 339.916 81.4C345.676 81.4 349.852 80.296 352.444 78.088C355.036 75.88 356.86 73.192 357.916 70.024C358.492 68.392 359.068 67.288 359.644 66.712C360.22 66.136 361.276 65.848 362.812 65.848H381.676C382.54 65.848 383.26 66.184 383.836 66.856C384.508 67.432 384.844 68.152 384.844 69.016C384.748 75.448 382.684 81.4 378.652 86.872C374.716 92.248 369.34 96.52 362.524 99.688C355.708 102.856 348.172 104.44 339.916 104.44C330.988 104.44 323.212 102.712 316.588 99.256C309.964 95.704 304.828 91 301.18 85.144C297.532 79.192 295.516 72.616 295.132 65.416C294.94 60.808 294.844 57.016 294.844 54.04C294.844 50.488 294.94 45.736 295.132 39.784C295.42 32.584 297.388 26.056 301.036 20.2C304.684 14.248 309.82 9.544 316.444 6.08799C323.164 2.53599 330.988 0.759995 339.916 0.759995C348.172 0.759995 355.708 2.34399 362.524 5.51199C369.34 8.67999 374.716 13 378.652 18.472C382.684 23.848 384.748 29.752 384.844 36.184C384.844 37.048 384.508 37.816 383.836 38.488C383.26 39.064 382.54 39.352 381.676 39.352H362.812C361.276 39.352 360.22 39.064 359.644 38.488C359.068 37.912 358.492 36.808 357.916 35.176C356.86 32.008 355.036 29.32 352.444 27.112C349.852 24.904 345.676 23.8 339.916 23.8C333.868 23.8 329.404 25.336 326.524 28.408C323.74 31.48 322.156 35.512 321.772 40.504C321.58 43.768 321.484 47.8 321.484 52.6C321.484 57.208 321.58 61.24 321.772 64.696ZM473.137 71.176C472.849 77.32 471.073 82.936 467.809 88.024C464.545 93.016 459.985 97 454.129 99.976C448.273 102.952 441.553 104.44 433.969 104.44C426.385 104.44 419.665 102.952 413.809 99.976C407.953 97 403.393 93.016 400.129 88.024C396.865 82.936 395.089 77.32 394.801 71.176L394.657 65.56L394.801 60.088C394.993 53.944 396.721 48.328 399.985 43.24C403.249 38.152 407.809 34.12 413.665 31.144C419.617 28.168 426.385 26.68 433.969 26.68C441.553 26.68 448.273 28.168 454.129 31.144C460.081 34.12 464.689 38.152 467.953 43.24C471.217 48.328 472.945 53.944 473.137 60.088C473.233 61.048 473.281 62.872 473.281 65.56C473.281 68.344 473.233 70.216 473.137 71.176ZM433.969 82.12C437.809 82.12 440.881 81.112 443.185 79.096C445.585 76.984 446.929 74.104 447.217 70.456C447.409 68.536 447.505 66.904 447.505 65.56C447.505 64.216 447.409 62.584 447.217 60.664C446.929 57.016 445.585 54.184 443.185 52.168C440.881 50.056 437.809 49 433.969 49C430.129 49 427.009 50.056 424.609 52.168C422.305 54.184 421.009 57.016 420.721 60.664C420.625 61.624 420.577 63.256 420.577 65.56C420.577 67.864 420.625 69.496 420.721 70.456C421.009 74.104 422.305 76.984 424.609 79.096C427.009 81.112 430.129 82.12 433.969 82.12ZM538.976 28.12C540.032 28.12 540.944 28.504 541.712 29.272C542.48 30.04 542.864 30.952 542.864 32.008V46.552C542.864 47.608 542.48 48.52 541.712 49.288C540.944 50.056 540.032 50.44 538.976 50.44H525.872C521.552 50.44 518.24 51.592 515.936 53.896C513.728 56.104 512.624 59.368 512.624 63.688V99.112C512.624 100.168 512.24 101.08 511.472 101.848C510.704 102.616 509.792 103 508.736 103H490.592C489.536 103 488.624 102.616 487.856 101.848C487.088 101.08 486.704 100.168 486.704 99.112V32.008C486.704 30.952 487.088 30.04 487.856 29.272C488.624 28.504 489.536 28.12 490.592 28.12H507.296C508.352 28.12 509.264 28.504 510.032 29.272C510.8 30.04 511.184 30.952 511.184 32.008V35.32C516.176 30.52 522.56 28.12 530.336 28.12H538.976ZM629.549 99.112C629.549 100.168 629.165 101.08 628.397 101.848C627.629 102.616 626.717 103 625.661 103H607.517C606.461 103 605.549 102.616 604.781 101.848C604.013 101.08 603.629 100.168 603.629 99.112V62.68C603.629 58.456 602.573 55.144 600.461 52.744C598.445 50.248 595.325 49 591.101 49C586.973 49 583.853 50.2 581.741 52.6C579.725 55 578.717 58.36 578.717 62.68V99.112C578.717 100.168 578.333 101.08 577.565 101.848C576.797 102.616 575.885 103 574.829 103H556.685C555.629 103 554.717 102.616 553.949 101.848C553.181 101.08 552.797 100.168 552.797 99.112V32.008C552.797 30.952 553.181 30.04 553.949 29.272C554.717 28.504 555.629 28.12 556.685 28.12H574.109C575.165 28.12 576.077 28.504 576.845 29.272C577.613 30.04 577.997 30.952 577.997 32.008V35.32C582.509 29.56 589.277 26.68 598.301 26.68C607.997 26.68 615.629 29.416 621.197 34.888C626.765 40.36 629.549 48.568 629.549 59.512V99.112Z" fill="#FBC531"/>
</g>
<defs>
<filter id="filter0_d" x="0.962891" y="0.76001" width="632.586" height="117.68" filterUnits="userSpaceOnUse" color-interpolation-filters="sRGB">
<feFlood flood-opacity="0" result="BackgroundImageFix"/>
<feColorMatrix in="SourceAlpha" type="matrix" values="0 0 0 0 0 0 0 0 0 0 0 0 0 0 0 0 0 0 127 0"/>
<feOffset dy="10"/>
<feGaussianBlur stdDeviation="2"/>
<feColorMatrix type="matrix" values="0 0 0 0 0 0 0 0 0 0 0 0 0 0 0 0 0 0 0.25 0"/>
<feBlend mode="normal" in2="BackgroundImageFix" result="effect1_dropShadow"/>
<feBlend mode="normal" in="SourceGraphic" in2="effect1_dropShadow" result="shape"/>
</filter>
</defs>
</svg>
